<?xml version="1.0" encoding="utf-8"?>
<!-- Generator: Adobe Illustrator 23.0.1, SVG Export Plug-In . SVG Version: 6.00 Build 0)  -->
<svg version="1.1" id="Layer_1" xmlns="http://www.w3.org/2000/svg" xmlns:xlink="http://www.w3.org/1999/xlink" x="0px" y="0px"
	 viewBox="0 0 1440 230" style="enable-background:new 0 0 1440 230;" xml:space="preserve">
<style type="text/css">
	.st0{fill-rule:evenodd;clip-rule:evenodd;fill:#589EE0;}
	.st1{fill:none;stroke:#79B3E9;stroke-width:2;}
	.st2{fill:none;stroke:#1D89D4;stroke-width:2;}
	.st3{opacity:0.1081;}
	.st4{opacity:0.2655;}
	.st5{filter:url(#Adobe_OpacityMaskFilter);}
	.st6{fill-rule:evenodd;clip-rule:evenodd;fill:#FFFFFF;}
	.st7{opacity:0.2655;mask:url(#mask-2_1_);fill-rule:evenodd;clip-rule:evenodd;fill:#FFFFFF;enable-background:new    ;}
	.st8{filter:url(#Adobe_OpacityMaskFilter_1_);}
	.st9{opacity:0.2655;mask:url(#mask-4_1_);fill-rule:evenodd;clip-rule:evenodd;fill:#FFFFFF;enable-background:new    ;}
	.st10{filter:url(#Adobe_OpacityMaskFilter_2_);}
	.st11{opacity:0.2655;mask:url(#mask-6_1_);fill-rule:evenodd;clip-rule:evenodd;fill:#FFFFFF;enable-background:new    ;}
	.st12{filter:url(#Adobe_OpacityMaskFilter_3_);}
	.st13{opacity:0.2655;mask:url(#mask-8_1_);fill-rule:evenodd;clip-rule:evenodd;fill:#FFFFFF;enable-background:new    ;}
	.st14{filter:url(#Adobe_OpacityMaskFilter_4_);}
	.st15{opacity:0.2655;mask:url(#mask-10_1_);fill-rule:evenodd;clip-rule:evenodd;fill:#FFFFFF;enable-background:new    ;}
	.st16{filter:url(#Adobe_OpacityMaskFilter_5_);}
	.st17{opacity:0.2655;mask:url(#mask-12_1_);fill-rule:evenodd;clip-rule:evenodd;fill:#FFFFFF;enable-background:new    ;}
	.st18{filter:url(#Adobe_OpacityMaskFilter_6_);}
	.st19{opacity:0.2655;mask:url(#mask-14_1_);fill-rule:evenodd;clip-rule:evenodd;fill:#FFFFFF;enable-background:new    ;}
	.st20{filter:url(#Adobe_OpacityMaskFilter_7_);}
	.st21{opacity:0.2655;mask:url(#mask-16_1_);fill-rule:evenodd;clip-rule:evenodd;fill:#FFFFFF;enable-background:new    ;}
	.st22{filter:url(#Adobe_OpacityMaskFilter_8_);}
	.st23{opacity:0.2655;mask:url(#mask-18_1_);fill-rule:evenodd;clip-rule:evenodd;fill:#FFFFFF;enable-background:new    ;}
	.st24{filter:url(#Adobe_OpacityMaskFilter_9_);}
	.st25{opacity:0.2655;mask:url(#mask-20_1_);fill-rule:evenodd;clip-rule:evenodd;fill:#FFFFFF;enable-background:new    ;}
	.st26{filter:url(#Adobe_OpacityMaskFilter_10_);}
	.st27{opacity:0.2655;mask:url(#mask-22_1_);fill-rule:evenodd;clip-rule:evenodd;fill:#FFFFFF;enable-background:new    ;}
	.st28{filter:url(#Adobe_OpacityMaskFilter_11_);}
	.st29{opacity:0.2655;mask:url(#mask-24_1_);fill-rule:evenodd;clip-rule:evenodd;fill:#FFFFFF;enable-background:new    ;}
	.st30{filter:url(#Adobe_OpacityMaskFilter_12_);}
	.st31{opacity:0.2655;mask:url(#mask-26_1_);fill-rule:evenodd;clip-rule:evenodd;fill:#FFFFFF;enable-background:new    ;}
	.st32{filter:url(#Adobe_OpacityMaskFilter_13_);}
	.st33{opacity:0.2655;mask:url(#mask-28_1_);fill-rule:evenodd;clip-rule:evenodd;fill:#FFFFFF;enable-background:new    ;}
	.st34{filter:url(#Adobe_OpacityMaskFilter_14_);}
	.st35{opacity:0.2655;mask:url(#mask-30_1_);fill-rule:evenodd;clip-rule:evenodd;fill:#FFFFFF;enable-background:new    ;}
	.st36{filter:url(#Adobe_OpacityMaskFilter_15_);}
	.st37{opacity:0.2655;mask:url(#mask-32_1_);fill-rule:evenodd;clip-rule:evenodd;fill:#FFFFFF;enable-background:new    ;}
	.st38{filter:url(#Adobe_OpacityMaskFilter_16_);}
	.st39{opacity:0.2655;mask:url(#mask-34_1_);fill-rule:evenodd;clip-rule:evenodd;fill:#FFFFFF;enable-background:new    ;}
	.st40{filter:url(#Adobe_OpacityMaskFilter_17_);}
	.st41{opacity:0.2655;mask:url(#mask-36_1_);fill-rule:evenodd;clip-rule:evenodd;fill:#FFFFFF;enable-background:new    ;}
</style>
<title>blue_outline</title>
<desc>Created with Sketch.</desc>
<g id="blue_outline">
	<rect id="Rectangle" class="st0" width="1440" height="230"/>
	<path id="Fill-1" class="st1" d="M405,78.8c0-0.7-0.5-1.4-1.1-1.8l-0.3-0.2c-0.6-0.3-1.4-0.1-1.9,0.3l-0.9,0.9
		c-0.7,0.7-1.7,1.1-2.7,1.1c-2.6,0-4.7-2.1-4.7-4.7c0-2.6,2.1-4.7,4.7-4.7c0.9,0,2.1,0.5,2.7,1.1l0.9,0.9c0.5,0.5,1.3,0.6,1.9,0.3
		l0.3-0.2c0.6-0.4,1-1,1.1-1.8V57.5h-12.7c-1,0-1.9-0.6-2.4-1.5l-0.2-0.3c-0.4-0.9-0.2-2,0.4-2.7l0.9-0.9c0.5-0.6,0.9-1.4,0.9-2.2
		c0-2.2-1.8-4-4-4c-2.2,0-4,1.8-4,4c0,0.7,0.4,1.7,0.9,2.2l0.9,0.9c0.7,0.7,0.9,1.8,0.4,2.7l-0.2,0.3c-0.5,0.9-1.4,1.4-2.4,1.5H371
		v12.6c0,0.7,0.5,1.4,1.1,1.8l0.3,0.2c0.6,0.3,1.4,0.1,1.9-0.3l0.9-0.9c0.7-0.7,1.7-1.1,2.7-1.1c2.6,0,4.7,2.1,4.7,4.7
		c0,2.6-2.1,4.7-4.7,4.7c-1,0-2-0.4-2.7-1.1l-0.9-0.9c-0.5-0.5-1.3-0.6-1.9-0.3l-0.3,0.2c-0.6,0.4-1,1-1.1,1.8v12.6h12.7
		c1,0,1.9,0.6,2.4,1.5l0.2,0.3c0.4,0.9,0.2,2-0.4,2.7l-0.9,0.9c-0.5,0.6-0.9,1.4-0.9,2.2c0,2.2,1.8,4,4,4c2.2,0,4-1.8,4-4
		c0-0.7-0.4-1.7-0.9-2.2l-0.9-0.9c-0.7-0.7-0.9-1.8-0.4-2.7l0.2-0.3c0.5-0.9,1.4-1.4,2.4-1.5H405V78.8z"/>
	<path class="st1" d="M1050.2,144c0.7,0,1.4-0.5,1.8-1.1l0.2-0.3c0.3-0.6,0.1-1.4-0.3-1.9l-0.9-0.9c-0.7-0.7-1.1-1.7-1.1-2.7
		c0-2.6,2.1-4.7,4.7-4.7c2.6,0,4.7,2.1,4.7,4.7c0,0.9-0.5,2.1-1.1,2.7l-0.9,0.9c-0.5,0.5-0.6,1.3-0.3,1.9l0.2,0.3
		c0.4,0.6,1,1,1.8,1.1h12.6v-12.7c0-1,0.6-1.9,1.5-2.4l0.3-0.2c0.9-0.4,2-0.2,2.7,0.4l0.9,0.9c0.6,0.5,1.4,0.9,2.2,0.9
		c2.2,0,4-1.8,4-4c0-2.2-1.8-4-4-4c-0.7,0-1.7,0.4-2.2,0.9l-0.9,0.9c-0.7,0.7-1.8,0.9-2.7,0.4l-0.3-0.2c-0.9-0.5-1.4-1.4-1.5-2.4
		V110h-12.6c-0.7,0-1.4,0.5-1.8,1.1l-0.2,0.3c-0.3,0.6-0.1,1.4,0.3,1.9l0.9,0.9c0.7,0.7,1.1,1.7,1.1,2.7c0,2.6-2.1,4.7-4.7,4.7
		c-2.6,0-4.7-2.1-4.7-4.7c0-1,0.4-2,1.1-2.7l0.9-0.9c0.5-0.5,0.6-1.3,0.3-1.9l-0.2-0.3c-0.4-0.6-1-1-1.8-1.1h-12.6v12.7
		c0,1-0.6,1.9-1.5,2.4l-0.3,0.2c-0.9,0.4-2,0.2-2.7-0.4l-0.9-0.9c-0.6-0.5-1.4-0.9-2.2-0.9c-2.2,0-4,1.8-4,4c0,2.2,1.8,4,4,4
		c0.7,0,1.7-0.4,2.2-0.9l0.9-0.9c0.7-0.7,1.8-0.9,2.7-0.4l0.3,0.2c0.9,0.5,1.4,1.4,1.5,2.4V144H1050.2z"/>
	<path class="st2" d="M1440,49h-10.6c-2.9,0.2-5.4,1.8-6.9,4.3l-0.6,1.2c-1.1,2.2-0.6,5.6,1.2,7.4l3.3,3.3c2.6,2.9,4.2,6.6,4.4,10.5
		c0,10.1-8.2,18.3-18.3,18.3c-10.1,0-18.4-8.2-18.4-18.2c0.2-3.9,1.7-7.7,4.4-10.6l3.3-3.3c1.8-2,2.3-4.9,1.2-7.4l-0.6-1.2
		c-1.4-2.5-4-4.1-6.9-4.3h-49.4v49.2c-0.2,3.9-2.4,7.4-5.8,9.3l-1.2,0.6c-3.6,1.6-7.8,0.9-10.7-1.7l-3.3-3.3
		c-2.4-2.1-5.4-3.4-8.6-3.6c-8.6,0-15.5,6.9-15.5,15.4c0,8.5,7,15.4,15.5,15.4c2.7,0,6.7-1.6,8.6-3.6l3.3-3.3
		c2.9-2.7,7.1-3.3,10.7-1.7l1.2,0.6c3.4,1.9,5.6,5.4,5.8,9.4V181h49.4c2.9-0.2,5.4-1.8,6.9-4.3l0.6-1.2c1.1-2.2,0.6-5.6-1.2-7.4
		l-3.3-3.3c-2.7-2.9-4.2-6.6-4.4-10.6c0-10.1,8.2-18.3,18.3-18.3c10.1,0,18.3,8.2,18.3,18.3c0,3.5-1.9,8.1-4.4,10.6l-3.3,3.3
		c-1.8,2-2.3,4.9-1.2,7.4l0.6,1.2c1.4,2.5,4,4.1,6.9,4.3h10.6"/>
	<path id="Fill-1-Copy_2_" class="st1" d="M0.2,181h34.1c2.1-0.1,4-1.3,5-3.1l0.4-0.9c0.8-1.6,0.4-4.1-0.9-5.3l-2.4-2.4
		c-1.9-2.1-3.1-4.8-3.2-7.7c0-7.3,6-13.3,13.4-13.3c7.4,0,13.4,5.9,13.4,13.3c0,2.5-1.4,5.9-3.2,7.7l-2.4,2.4
		c-1.3,1.5-1.7,3.5-0.9,5.3l0.4,0.9c1.1,1.8,2.9,3,5,3.1h36.1v-35.8c0.1-2.8,1.8-5.4,4.3-6.8l0.9-0.4c2.6-1.2,5.7-0.7,7.8,1.2
		l2.4,2.4c1.7,1.5,4,2.5,6.3,2.6c6.3,0,11.3-5,11.3-11.2c0-6.2-5.1-11.2-11.3-11.2c-2,0-4.9,1.2-6.3,2.6l-2.4,2.4
		c-2.1,1.9-5.2,2.4-7.8,1.2l-0.9-0.4c-2.5-1.4-4.1-4-4.3-6.8V85H59.1c-2.1,0.1-4,1.3-5,3.1L53.6,89c-0.8,1.6-0.4,4.1,0.9,5.4
		l2.4,2.4c1.9,2.1,3.1,4.8,3.2,7.7c0,7.3-6,13.3-13.4,13.3c-7.4,0-13.4-5.9-13.4-13.3c0.1-2.9,1.3-5.6,3.2-7.7l2.4-2.4
		c1.3-1.5,1.7-3.6,0.9-5.4l-0.4-0.9c-1-1.8-2.9-3-5-3.1H0.2"/>
	<g id="Group-3797" transform="translate(1160.000000, 77.000000)" class="st3">
		<g id="Group-3793" transform="translate(0.000000, 0.000000)">
			<g id="Clip-3792" class="st4">
			</g>
			<defs>
				<filter id="Adobe_OpacityMaskFilter" filterUnits="userSpaceOnUse" x="0.4" y="0.9" width="4.4" height="5.5">
					<feColorMatrix  type="matrix" values="1 0 0 0 0  0 1 0 0 0  0 0 1 0 0  0 0 0 1 0"/>
				</filter>
			</defs>
			<mask maskUnits="userSpaceOnUse" x="0.4" y="0.9" width="4.4" height="5.5" id="mask-2_1_">
				<g class="st5">
					<path id="path-1_1_" class="st6" d="M0.4,1.5c1.5,1.8,2.9,3.6,4.4,5.4l0,0c0-0.2,0-0.4,0-0.5l0,0L0.4,0.9
						C0.4,1.1,0.4,1.3,0.4,1.5"/>
				</g>
			</mask>
			<path id="Fill-3791" class="st7" d="M0.4,0.9l4.4,5.4c0,0,0,0,0,0L0.4,0.9C0.4,1,0.4,0.9,0.4,0.9"/>
		</g>
		<g id="Group-3796" transform="translate(0.000000, 0.000000)">
			<g id="Clip-3795" class="st4">
			</g>
			<defs>
				<filter id="Adobe_OpacityMaskFilter_1_" filterUnits="userSpaceOnUse" x="0.4" y="1" width="4.5" height="5.9">
					<feColorMatrix  type="matrix" values="1 0 0 0 0  0 1 0 0 0  0 0 1 0 0  0 0 0 1 0"/>
				</filter>
			</defs>
			<mask maskUnits="userSpaceOnUse" x="0.4" y="1" width="4.5" height="5.9" id="mask-4_1_">
				<g class="st8">
					<path id="path-3_1_" class="st6" d="M0.4,1.5c1.5,1.8,2.9,3.6,4.4,5.4l0,0c0-0.2,0-0.4,0-0.5l0,0L0.4,0.9
						C0.4,1.1,0.4,1.3,0.4,1.5"/>
				</g>
			</mask>
			<path id="Fill-3794" class="st9" d="M0.4,1l4.4,5.4c0,0.2,0,0.4,0,0.5L0.4,1.5C0.4,1.3,0.4,1.2,0.4,1"/>
		</g>
	</g>
	<g id="Group-3907" transform="translate(1160.000000, 77.000000)" class="st3">
		<g id="Group-3888" transform="translate(0.000000, 0.000000)">
			<g id="Clip-3887" class="st4">
			</g>
			<defs>
				<filter id="Adobe_OpacityMaskFilter_2_" filterUnits="userSpaceOnUse" x="0.9" y="0.8" width="4.4" height="5.5">
					<feColorMatrix  type="matrix" values="1 0 0 0 0  0 1 0 0 0  0 0 1 0 0  0 0 0 1 0"/>
				</filter>
			</defs>
			<mask maskUnits="userSpaceOnUse" x="0.9" y="0.8" width="4.4" height="5.5" id="mask-6_1_">
				<g class="st10">
					<path id="path-5_1_" class="st6" d="M0.4,2.5l4.4,5.4c0.5-0.5,0.7-1.1,0.6-1.7l0,0L0.9,0.8C1.1,1.4,0.9,2,0.4,2.5"/>
				</g>
			</mask>
			<path id="Fill-3886" class="st11" d="M0.9,0.8l4.4,5.4c0,0,0,0,0,0.1L0.9,0.8C1,0.8,1,0.8,0.9,0.8"/>
		</g>
		<g id="Group-3891" transform="translate(0.000000, 0.000000)">
			<g id="Clip-3890" class="st4">
			</g>
			<defs>
				<filter id="Adobe_OpacityMaskFilter_3_" filterUnits="userSpaceOnUse" x="0.9" y="0.8" width="4.5" height="6.2">
					<feColorMatrix  type="matrix" values="1 0 0 0 0  0 1 0 0 0  0 0 1 0 0  0 0 0 1 0"/>
				</filter>
			</defs>
			<mask maskUnits="userSpaceOnUse" x="0.9" y="0.8" width="4.5" height="6.2" id="mask-8_1_">
				<g class="st12">
					<path id="path-7_1_" class="st6" d="M0.4,2.5l4.4,5.4c0.5-0.5,0.7-1.1,0.6-1.7l0,0L0.9,0.8C1.1,1.4,0.9,2,0.4,2.5"/>
				</g>
			</mask>
			<path id="Fill-3889" class="st13" d="M1,0.8l4.4,5.4c0,0.3,0,0.5,0,0.8L0.9,1.6C1,1.3,1,1.1,1,0.8"/>
		</g>
		<g id="Group-3894" transform="translate(0.000000, 0.000000)">
			<g id="Clip-3893" class="st4">
			</g>
			<defs>
				<filter id="Adobe_OpacityMaskFilter_4_" filterUnits="userSpaceOnUse" x="0.8" y="1.6" width="4.5" height="5.7">
					<feColorMatrix  type="matrix" values="1 0 0 0 0  0 1 0 0 0  0 0 1 0 0  0 0 0 1 0"/>
				</filter>
			</defs>
			<mask maskUnits="userSpaceOnUse" x="0.8" y="1.6" width="4.5" height="5.7" id="mask-10_1_">
				<g class="st14">
					<path id="path-9_1_" class="st6" d="M0.4,2.5l4.4,5.4c0.5-0.5,0.7-1.1,0.6-1.7l0,0L0.9,0.8C1.1,1.4,0.9,2,0.4,2.5"/>
				</g>
			</mask>
			<path id="Fill-3892" class="st15" d="M0.9,1.6L5.3,7c0,0.1-0.1,0.2-0.1,0.3L0.8,1.9C0.9,1.8,0.9,1.7,0.9,1.6"/>
		</g>
		<g id="Group-3897" transform="translate(0.000000, 0.000000)">
			<g id="Clip-3896" class="st4">
			</g>
			<defs>
				<filter id="Adobe_OpacityMaskFilter_5_" filterUnits="userSpaceOnUse" x="0.7" y="1.9" width="4.5" height="5.6">
					<feColorMatrix  type="matrix" values="1 0 0 0 0  0 1 0 0 0  0 0 1 0 0  0 0 0 1 0"/>
				</filter>
			</defs>
			<mask maskUnits="userSpaceOnUse" x="0.7" y="1.9" width="4.5" height="5.6" id="mask-12_1_">
				<g class="st16">
					<path id="path-11_1_" class="st6" d="M0.4,2.5l4.4,5.4c0.5-0.5,0.7-1.1,0.6-1.7l0,0L0.9,0.8C1.1,1.4,0.9,2,0.4,2.5"/>
				</g>
			</mask>
			<path id="Fill-3895" class="st17" d="M0.8,1.9l4.4,5.4c0,0.1-0.1,0.1-0.1,0.2L0.7,2.1C0.7,2,0.8,2,0.8,1.9"/>
		</g>
		<g id="Group-3900" transform="translate(0.000000, 0.000000)">
			<g id="Clip-3899" class="st4">
			</g>
			<defs>
				<filter id="Adobe_OpacityMaskFilter_6_" filterUnits="userSpaceOnUse" x="0.6" y="2.1" width="4.5" height="5.6">
					<feColorMatrix  type="matrix" values="1 0 0 0 0  0 1 0 0 0  0 0 1 0 0  0 0 0 1 0"/>
				</filter>
			</defs>
			<mask maskUnits="userSpaceOnUse" x="0.6" y="2.1" width="4.5" height="5.6" id="mask-14_1_">
				<g class="st18">
					<path id="path-13_1_" class="st6" d="M0.4,2.5l4.4,5.4c0.5-0.5,0.7-1.1,0.6-1.7l0,0L0.9,0.8C1.1,1.4,0.9,2,0.4,2.5"/>
				</g>
			</mask>
			<path id="Fill-3898" class="st19" d="M0.7,2.1l4.4,5.4C5.1,7.6,5,7.6,5,7.7L0.6,2.3C0.6,2.2,0.6,2.2,0.7,2.1"/>
		</g>
		<g id="Group-3903" transform="translate(0.000000, 0.000000)">
			<g id="Clip-3902" class="st4">
			</g>
			<defs>
				<filter id="Adobe_OpacityMaskFilter_7_" filterUnits="userSpaceOnUse" x="0.4" y="2.3" width="4.5" height="5.6">
					<feColorMatrix  type="matrix" values="1 0 0 0 0  0 1 0 0 0  0 0 1 0 0  0 0 0 1 0"/>
				</filter>
			</defs>
			<mask maskUnits="userSpaceOnUse" x="0.4" y="2.3" width="4.5" height="5.6" id="mask-16_1_">
				<g class="st20">
					<path id="path-15_1_" class="st6" d="M0.4,2.5l4.4,5.4c0.5-0.5,0.7-1.1,0.6-1.7l0,0L0.9,0.8C1.1,1.4,0.9,2,0.4,2.5"/>
				</g>
			</mask>
			<path id="Fill-3901" class="st21" d="M0.6,2.3L5,7.7c0,0.1-0.1,0.1-0.1,0.2L0.4,2.4C0.5,2.4,0.5,2.3,0.6,2.3"/>
		</g>
		<g id="Group-3906" transform="translate(0.000000, 0.000000)">
			<g id="Clip-3905" class="st4">
			</g>
			<defs>
				<filter id="Adobe_OpacityMaskFilter_8_" filterUnits="userSpaceOnUse" x="0.4" y="2.4" width="4.5" height="5.5">
					<feColorMatrix  type="matrix" values="1 0 0 0 0  0 1 0 0 0  0 0 1 0 0  0 0 0 1 0"/>
				</filter>
			</defs>
			<mask maskUnits="userSpaceOnUse" x="0.4" y="2.4" width="4.5" height="5.5" id="mask-18_1_">
				<g class="st22">
					<path id="path-17_1_" class="st6" d="M0.4,2.5l4.4,5.4c0.5-0.5,0.7-1.1,0.6-1.7l0,0L0.9,0.8C1.1,1.4,0.9,2,0.4,2.5"/>
				</g>
			</mask>
			<path id="Fill-3904" class="st23" d="M0.4,2.4l4.4,5.4c0,0,0,0,0,0.1L0.4,2.4C0.4,2.5,0.4,2.5,0.4,2.4"/>
		</g>
	</g>
	<g id="Group-4032" transform="translate(1161.000000, 82.000000)" class="st3">
		<g id="Clip-4031" class="st4">
		</g>
		<defs>
			<filter id="Adobe_OpacityMaskFilter_9_" filterUnits="userSpaceOnUse" x="0" y="0" width="5" height="6">
				<feColorMatrix  type="matrix" values="1 0 0 0 0  0 1 0 0 0  0 0 1 0 0  0 0 0 1 0"/>
			</filter>
		</defs>
		<mask maskUnits="userSpaceOnUse" x="0" y="0" width="5" height="6" id="mask-20_1_">
			<g class="st24">
				<path id="path-19_1_" class="st6" d="M4.2,5.6C4.5,5.6,4.8,5.8,5,6l0,0L0.8,0.4C0.6,0.2,0.3,0,0,0l0,0"/>
			</g>
		</mask>
		<path id="Fill-4030" class="st25" d="M0.8,0.4L5,6C4.8,5.8,4.5,5.6,4.2,5.6L0,0C0.3,0,0.6,0.2,0.8,0.4"/>
	</g>
	<g id="Group-4045" transform="translate(1161.000000, 82.000000)" class="st3">
		<g id="Group-4035" transform="translate(0.000000, 0.000000)">
			<g id="Clip-4034" class="st4">
			</g>
			<defs>
				<filter id="Adobe_OpacityMaskFilter_10_" filterUnits="userSpaceOnUse" x="0.7" y="0.8" width="4.4" height="5.6">
					<feColorMatrix  type="matrix" values="1 0 0 0 0  0 1 0 0 0  0 0 1 0 0  0 0 0 1 0"/>
				</filter>
			</defs>
			<mask maskUnits="userSpaceOnUse" x="0.7" y="0.8" width="4.4" height="5.6" id="mask-22_1_">
				<g class="st26">
					<path id="path-21_1_" class="st6" d="M0.9,1.1l4.4,5.5c0-0.1-0.1-0.2-0.2-0.3l0,0L0.7,0.8C0.8,0.9,0.8,1,0.9,1.1"/>
				</g>
			</mask>
			<path id="Fill-4033" class="st27" d="M0.7,0.8l4.4,5.5c0,0,0,0,0,0L0.7,0.8C0.7,0.8,0.7,0.8,0.7,0.8"/>
		</g>
		<g id="Group-4038" transform="translate(0.000000, 0.000000)">
			<g id="Clip-4037" class="st4">
			</g>
			<defs>
				<filter id="Adobe_OpacityMaskFilter_11_" filterUnits="userSpaceOnUse" x="0.7" y="0.8" width="4.5" height="5.6">
					<feColorMatrix  type="matrix" values="1 0 0 0 0  0 1 0 0 0  0 0 1 0 0  0 0 0 1 0"/>
				</filter>
			</defs>
			<mask maskUnits="userSpaceOnUse" x="0.7" y="0.8" width="4.5" height="5.6" id="mask-24_1_">
				<g class="st28">
					<path id="path-23_1_" class="st6" d="M0.9,1.1l4.4,5.5c0-0.1-0.1-0.2-0.2-0.3l0,0L0.7,0.8C0.8,0.9,0.8,1,0.9,1.1"/>
				</g>
			</mask>
			<path id="Fill-4036" class="st29" d="M0.7,0.8l4.4,5.5c0,0,0.1,0.1,0.1,0.1L0.8,0.9C0.8,0.9,0.8,0.9,0.7,0.8"/>
		</g>
		<g id="Group-4041" transform="translate(0.000000, 0.000000)">
			<g id="Clip-4040" class="st4">
			</g>
			<defs>
				<filter id="Adobe_OpacityMaskFilter_12_" filterUnits="userSpaceOnUse" x="0.8" y="0.9" width="4.5" height="5.7">
					<feColorMatrix  type="matrix" values="1 0 0 0 0  0 1 0 0 0  0 0 1 0 0  0 0 0 1 0"/>
				</filter>
			</defs>
			<mask maskUnits="userSpaceOnUse" x="0.8" y="0.9" width="4.5" height="5.7" id="mask-26_1_">
				<g class="st30">
					<path id="path-25_1_" class="st6" d="M0.9,1.1l4.4,5.5c0-0.1-0.1-0.2-0.2-0.3l0,0L0.7,0.8C0.8,0.9,0.8,1,0.9,1.1"/>
				</g>
			</mask>
			<path id="Fill-4039" class="st31" d="M0.8,0.9l4.4,5.5c0,0,0,0.1,0.1,0.1L0.9,1.1C0.9,1,0.8,1,0.8,0.9"/>
		</g>
		<g id="Group-4044" transform="translate(0.000000, 0.000000)">
			<g id="Clip-4043" class="st4">
			</g>
			<defs>
				<filter id="Adobe_OpacityMaskFilter_13_" filterUnits="userSpaceOnUse" x="0.9" y="1.1" width="4.4" height="5.5">
					<feColorMatrix  type="matrix" values="1 0 0 0 0  0 1 0 0 0  0 0 1 0 0  0 0 0 1 0"/>
				</filter>
			</defs>
			<mask maskUnits="userSpaceOnUse" x="0.9" y="1.1" width="4.4" height="5.5" id="mask-28_1_">
				<g class="st32">
					<path id="path-27_1_" class="st6" d="M0.9,1.1l4.4,5.5c0-0.1-0.1-0.2-0.2-0.3l0,0L0.7,0.8C0.8,0.9,0.8,1,0.9,1.1"/>
				</g>
			</mask>
			<path id="Fill-4042" class="st33" d="M0.9,1.1l4.4,5.5c0,0,0,0,0,0L0.9,1.1C0.9,1.1,0.9,1.1,0.9,1.1"/>
		</g>
	</g>
	<g id="Group-4058" transform="translate(1162.000000, 82.000000)" class="st3">
		<g id="Group-4048" transform="translate(0.000000, 0.000000)">
			<g id="Clip-4047" class="st4">
			</g>
			<defs>
				<filter id="Adobe_OpacityMaskFilter_14_" filterUnits="userSpaceOnUse" x="0.2" y="0.4" width="4.5" height="5.6">
					<feColorMatrix  type="matrix" values="1 0 0 0 0  0 1 0 0 0  0 0 1 0 0  0 0 0 1 0"/>
				</filter>
			</defs>
			<mask maskUnits="userSpaceOnUse" x="0.2" y="0.4" width="4.5" height="5.6" id="mask-30_1_">
				<g class="st34">
					<path id="path-29_1_" class="st6" d="M0.4,0.9l4.4,5.5C4.8,6.2,4.7,6.1,4.6,5.9l0,0L0.2,0.4C0.3,0.6,0.4,0.7,0.4,0.9"/>
				</g>
			</mask>
			<path id="Fill-4046" class="st35" d="M0.2,0.4l4.4,5.5c0,0,0,0,0,0.1L0.2,0.4C0.2,0.5,0.2,0.4,0.2,0.4"/>
		</g>
		<g id="Group-4051" transform="translate(0.000000, 0.000000)">
			<g id="Clip-4050" class="st4">
			</g>
			<defs>
				<filter id="Adobe_OpacityMaskFilter_15_" filterUnits="userSpaceOnUse" x="0.2" y="0.5" width="4.5" height="5.7">
					<feColorMatrix  type="matrix" values="1 0 0 0 0  0 1 0 0 0  0 0 1 0 0  0 0 0 1 0"/>
				</filter>
			</defs>
			<mask maskUnits="userSpaceOnUse" x="0.2" y="0.5" width="4.5" height="5.7" id="mask-32_1_">
				<g class="st36">
					<path id="path-31_1_" class="st6" d="M0.4,0.9l4.4,5.5C4.8,6.2,4.7,6.1,4.6,5.9l0,0L0.2,0.4C0.3,0.6,0.4,0.7,0.4,0.9"/>
				</g>
			</mask>
			<path id="Fill-4049" class="st37" d="M0.2,0.5L4.6,6c0,0.1,0.1,0.1,0.1,0.2L0.3,0.7C0.3,0.6,0.3,0.5,0.2,0.5"/>
		</g>
		<g id="Group-4054" transform="translate(0.000000, 0.000000)">
			<g id="Clip-4053" class="st4">
			</g>
			<defs>
				<filter id="Adobe_OpacityMaskFilter_16_" filterUnits="userSpaceOnUse" x="0.3" y="0.7" width="4.5" height="5.7">
					<feColorMatrix  type="matrix" values="1 0 0 0 0  0 1 0 0 0  0 0 1 0 0  0 0 0 1 0"/>
				</filter>
			</defs>
			<mask maskUnits="userSpaceOnUse" x="0.3" y="0.7" width="4.5" height="5.7" id="mask-34_1_">
				<g class="st38">
					<path id="path-33_1_" class="st6" d="M0.4,0.9l4.4,5.5C4.8,6.2,4.7,6.1,4.6,5.9l0,0L0.2,0.4C0.3,0.6,0.4,0.7,0.4,0.9"/>
				</g>
			</mask>
			<path id="Fill-4052" class="st39" d="M0.3,0.7l4.4,5.5c0,0.1,0.1,0.1,0.1,0.2L0.4,0.9C0.4,0.8,0.4,0.7,0.3,0.7"/>
		</g>
		<g id="Group-4057" transform="translate(0.000000, 0.000000)">
			<g id="Clip-4056" class="st4">
			</g>
			<defs>
				<filter id="Adobe_OpacityMaskFilter_17_" filterUnits="userSpaceOnUse" x="0.4" y="0.9" width="4.4" height="5.5">
					<feColorMatrix  type="matrix" values="1 0 0 0 0  0 1 0 0 0  0 0 1 0 0  0 0 0 1 0"/>
				</filter>
			</defs>
			<mask maskUnits="userSpaceOnUse" x="0.4" y="0.9" width="4.4" height="5.5" id="mask-36_1_">
				<g class="st40">
					<path id="path-35_1_" class="st6" d="M0.4,0.9l4.4,5.5C4.8,6.2,4.7,6.1,4.6,5.9l0,0L0.2,0.4C0.3,0.6,0.4,0.7,0.4,0.9"/>
				</g>
			</mask>
			<path id="Fill-4055" class="st41" d="M0.4,0.9l4.4,5.5c0,0,0,0,0,0L0.4,0.9C0.4,0.9,0.4,0.9,0.4,0.9"/>
		</g>
	</g>
	<path class="st1" d="M378,230c0-5.4-4.3-9.8-9.7-9.8c-1.7,0-4.2,1-5.4,2.3l-2.1,2.1c-1.8,1.7-4.4,2.1-6.7,1.1l-0.7-0.4
		c-2.1-1.2-3.5-3.5-3.6-6V188H319c-1.8,0.1-3.4,1.1-4.3,2.7l-0.4,0.8c-0.7,1.4-0.4,3.6,0.7,4.7l2.1,2.1c1.6,1.8,2.6,4.2,2.7,6.7
		c0,6.4-5.1,11.6-11.4,11.6c-6.3,0-11.4-5.2-11.4-11.6c0.1-2.5,1.1-4.9,2.7-6.7l2.1-2.1c1.1-1.3,1.4-3.1,0.7-4.7l-0.4-0.8
		c-0.9-1.6-2.5-2.6-4.3-2.7h-30.8v31.3c-0.1,2.5-1.5,4.7-3.6,6l-0.7,0.4c-2.2,1-4.9,0.6-6.7-1.1l-2.1-2.1c-1.5-1.3-3.4-2.1-5.4-2.3
		c-5.3,0-9.7,4.4-9.7,9.8"/>
	<path id="Fill-1-Copy-3_2_" class="st2" d="M1290,230c0-6.3-5.1-11.5-11.3-11.5"/>
	<path id="Fill-1-Copy-3_1_" class="st2" d="M1278.7,218.5c-2,0-4.9,1.2-6.3,2.6l-2.4,2.5c-2.1,2-5.2,2.5-7.8,1.3l-0.9-0.4
		c-2.5-1.4-4.1-4-4.3-6.9V181h-36.1c-2.1,0.1-4,1.3-5,3.2l-0.4,0.9c-0.8,1.6-0.4,4.2,0.9,5.5l2.4,2.5c1.9,2.2,3.1,4.9,3.2,7.8
		c0,7.5-6,13.6-13.4,13.6c-7.4,0-13.4-6.1-13.4-13.5c0.1-2.9,1.3-5.7,3.2-7.8l2.4-2.5c1.3-1.5,1.7-3.6,0.9-5.5l-0.4-0.9
		c-1.1-1.8-2.9-3-5-3.2H1160v36.5c-0.1,2.9-1.7,5.5-4.3,6.9l-0.9,0.4c-2.6,1.2-5.7,0.7-7.8-1.3l-2.4-2.5c-1.7-1.6-4-2.5-6.3-2.6
		c-6.3,0-11.4,5.1-11.4,11.5"/>
	<path class="st1" d="M1139,0v37c0.1,2.1,1.3,4.1,3.2,5.1l0.9,0.5c1.7,0.8,4.2,0.4,5.5-0.9l2.5-2.5c2.2-2,5-3.1,7.9-3.3
		c7.6,0,13.7,6.1,13.7,13.7c0,7.6-6.1,13.7-13.7,13.7c-2.9-0.1-5.7-1.3-7.9-3.3l-2.5-2.5c-1.5-1.4-3.7-1.7-5.5-0.9l-0.9,0.5
		c-1.9,1.1-3,3-3.2,5.1v37h36.9c2.9,0.1,5.6,1.8,7,4.4l0.5,0.9c1.2,2.7,0.7,5.8-1.3,8l-2.5,2.5c-1.6,1.8-2.5,4.1-2.7,6.4
		c0,6.4,5.2,11.6,11.6,11.6c6.4,0,11.6-5.2,11.6-11.6c0-2-1.2-5-2.7-6.4l-2.5-2.5c-2-2.2-2.5-5.3-1.3-8l0.5-0.9
		c1.4-2.6,4.1-4.2,7-4.4h36.9v-37c-0.1-2.1-1.3-4.1-3.2-5.1l-0.9-0.5c-1.7-0.8-4.2-0.4-5.5,0.9l-2.5,2.5c-2.2,2-5,3.1-7.9,3.3
		c-7.6,0-13.7-6.1-13.7-13.7s6.1-13.7,13.7-13.7"/>
	<path class="st1" d="M1218,35.9c2.6,0,6.1,1.4,7.9,3.3l2.5,2.5c1.5,1.3,3.7,1.7,5.5,0.9l0.9-0.5c1.9-1.1,3-3,3.2-5.1V0"/>
	<path class="st2" d="M208,0v26.6c0.1,1.7,1,3.1,2.5,4l0.7,0.4c1.3,0.6,3.3,0.3,4.3-0.7l1.9-1.9c1.7-1.5,3.9-2.4,6.2-2.5
		c5.9,0,10.7,4.7,10.7,10.6c0,5.9-4.8,10.6-10.6,10.6c-2.3-0.1-4.5-1-6.2-2.5l-1.9-1.9c-1.2-1-2.8-1.3-4.3-0.7l-0.7,0.4
		c-1.4,0.8-2.4,2.3-2.5,4v28.6h28.7c2.3,0.1,4.3,1.4,5.5,3.4l0.4,0.7c0.9,2.1,0.6,4.5-1,6.2l-1.9,1.9c-1.2,1.4-2,3.1-2.1,5
		c0,5,4,9,9,9c5,0,9-4,9-9c0-1.6-1-3.9-2.1-5l-1.9-1.9c-1.5-1.7-1.9-4.1-1-6.2l0.4-0.7c1.1-2,3.2-3.3,5.5-3.4H285V46.2
		c-0.1-1.7-1-3.1-2.5-4l-0.7-0.4c-1.3-0.7-3.3-0.3-4.3,0.7l-1.9,1.9c-1.7,1.5-3.9,2.4-6.2,2.5c-5.9,0-10.6-4.8-10.6-10.6
		s4.8-10.6,10.6-10.6"/>
	<path class="st2" d="M269.4,25.8c2,0,4.7,1.1,6.2,2.5l1.9,1.9c1.2,1,2.8,1.3,4.3,0.7l0.7-0.4c1.4-0.8,2.4-2.3,2.5-4V0"/>
</g>
</svg>
